<?xml version="1.0" encoding="UTF-8"?>
<svg viewBox="0 0 12 19" version="1.1" xmlns="http://www.w3.org/2000/svg" xmlns:xlink="http://www.w3.org/1999/xlink">
    <g id="Page-1" stroke="none" stroke-width="1" fill="none" fill-rule="evenodd">
        <g id="Desktop" transform="translate(-1492.000000, -818.000000)" fill-rule="nonzero" fill="#FFFFFF">
            <g id="#2" transform="translate(390.000000, 763.000000)">
                <g id="right" transform="translate(1075.000000, 32.000000)">
                    <g id="Arrow" transform="translate(27.000000, 23.000000)">
                        <path d="M14.8202072,12.9967622 L6.41467315,4.18906964 C6.29457966,4.06308941 6.15641844,4 6.00012632,4 C5.84383421,4 5.70542029,4.06308941 5.58526362,4.18906964 L-2.81957547,12.9967622 C-2.93998484,13.122941 -3,13.2677223 -3,13.4315694 C-3,13.5953503 -2.93979532,13.7403302 -2.81957547,13.8662442 L-1.91795822,14.8109966 C-1.79773838,14.9369768 -1.65938764,14.9999338 -1.50309552,14.9999338 C-1.34680341,14.9999338 -1.20845267,14.9369768 -1.08823282,14.8109966 L6.00012632,7.38312841 L13.0887382,14.81146 C13.2088948,14.9374402 13.3473087,15 13.5033482,15 C13.659893,15 13.7982437,14.937043 13.9184004,14.81146 L14.820144,13.8663104 C14.9403007,13.7403964 14.9999999,13.5953503 14.9999999,13.4316356 C15.0000631,13.2677223 14.9403638,13.1227424 14.8202072,12.9967622 Z" id="Shape" transform="translate(6.000000, 9.500000) rotate(-270.000000) translate(-6.000000, -9.500000) "></path>
                    </g>
                </g>
            </g>
        </g>
    </g>
</svg>
