<?xml version="1.0" encoding="UTF-8"?>
<svg viewBox="0 0 23 27" version="1.1" xmlns="http://www.w3.org/2000/svg" xmlns:xlink="http://www.w3.org/1999/xlink">
    <defs>
        <radialGradient cx="67.3717916%" cy="50%" fx="67.3717916%" fy="50%" r="38.5343558%" gradientTransform="translate(0.673718,0.500000),scale(1.000000,0.631579),rotate(89.999999),translate(-0.673718,-0.500000)" id="radialGradient-1">
            <stop stop-color="#FBFCDD" offset="0%"></stop>
            <stop stop-color="#B8E298" offset="100%"></stop>
        </radialGradient>
        <radialGradient cx="67.3717916%" cy="50%" fx="67.3717916%" fy="50%" r="38.5343558%" gradientTransform="translate(0.673718,0.500000),scale(1.000000,0.631579),rotate(89.999999),translate(-0.673718,-0.500000)" id="radialGradient-2">
            <stop stop-color="#69675A" offset="0%"></stop>
            <stop stop-color="#221B09" offset="100%"></stop>
        </radialGradient>
        <radialGradient cx="67.3717916%" cy="50%" fx="67.3717916%" fy="50%" r="38.5343558%" gradientTransform="translate(0.673718,0.500000),scale(1.000000,0.652174),rotate(89.999999),translate(-0.673718,-0.500000)" id="radialGradient-3">
            <stop stop-color="#C6F8FF" offset="0%"></stop>
            <stop stop-color="#3EE3F9" offset="100%"></stop>
        </radialGradient>
    </defs>
    <g id="Page-1" stroke="none" stroke-width="1" fill="none" fill-rule="evenodd">
        <g id="Desktop" transform="translate(-423.000000, -5387.000000)">
            <g id="#7" transform="translate(387.000000, 5257.000000)">
                <g id="resources" transform="translate(5.000000, 130.000000)">
                    <g id="item_1" transform="translate(1.000000, 0.000000)">
                        <g id="all" transform="translate(30.000000, 0.000000)">
                            <g id="air-kerosene" transform="translate(11.000000, 0.000000)" fill="url(#radialGradient-1)">
                                <path d="M0,12.9755194 C0,16.3042369 2.68645969,19 6.00004261,19 C9.31388116,19 12,16.3042369 12,12.9755194 C12,8.70834967 7.34354939,5.93747549 6.96784639,1.18748639 L6.96784639,0.989557465 C6.96784639,0.443390407 6.53415611,0 6.00004261,0 C5.4658865,0 5.03232404,0.443390407 5.03232404,0.989557465 L5.03232404,1.18748639 C4.64515992,5.93751906 0,8.70839324 0,12.9755194 Z M6.83240073,15.437628 C7.66867863,15.2396991 8.33397716,14.5113747 8.52753792,13.715825 C8.59366301,13.343581 8.91073965,13.0626116 9.29040504,13.0626116 C9.7159149,13.0626116 10.0644776,13.4190405 10.0644776,13.8541095 C10.0644776,14.4239339 9.59614838,15.2911092 8.95764926,15.9399657 C8.3302278,16.5735736 7.58312504,17.0208851 6.96780378,17.0208851 C6.5421235,17.0208851 6.19356076,16.6528671 6.19356076,16.2176675 C6.19360336,15.8294776 6.46837187,15.5048968 6.83240073,15.437628 Z" id="Shape"></path>
                            </g>
                            <g id="oil-copy" fill="url(#radialGradient-2)">
                                <path d="M0,12.9755194 C0,16.3042369 2.68645969,19 6.00004261,19 C9.31388116,19 12,16.3042369 12,12.9755194 C12,8.70834967 7.34354939,5.93747549 6.96784639,1.18748639 L6.96784639,0.989557465 C6.96784639,0.443390407 6.53415611,0 6.00004261,0 C5.4658865,0 5.03232404,0.443390407 5.03232404,0.989557465 L5.03232404,1.18748639 C4.64515992,5.93751906 0,8.70839324 0,12.9755194 Z M6.83240073,15.437628 C7.66867863,15.2396991 8.33397716,14.5113747 8.52753792,13.715825 C8.59366301,13.343581 8.91073965,13.0626116 9.29040504,13.0626116 C9.7159149,13.0626116 10.0644776,13.4190405 10.0644776,13.8541095 C10.0644776,14.4239339 9.59614838,15.2911092 8.95764926,15.9399657 C8.3302278,16.5735736 7.58312504,17.0208851 6.96780378,17.0208851 C6.5421235,17.0208851 6.19356076,16.6528671 6.19356076,16.2176675 C6.19360336,15.8294776 6.46837187,15.5048968 6.83240073,15.437628 Z" id="Shape"></path>
                            </g>
                            <g id="gas-copy" transform="translate(4.000000, 4.000000)" fill="url(#radialGradient-3)">
                                <path d="M0,15.7072077 C0,19.7367078 3.35807462,23 7.50005326,23 C11.6423514,23 15,19.7367078 15,15.7072077 C15,10.5416864 9.17943674,7.18747033 8.70980799,1.43748352 L8.70980799,1.19788535 C8.70980799,0.536735756 8.16769514,0 7.50005326,0 C6.83235812,0 6.29040504,0.536735756 6.29040504,1.19788535 L6.29040504,1.43748352 C5.80644989,7.18752307 0,10.5417392 0,15.7072077 Z M8.54050091,18.6876549 C9.58584829,18.4480568 10.4174715,17.5664009 10.6594224,16.6033671 C10.7420788,16.1527559 11.1384246,15.8126351 11.6130063,15.8126351 C12.1448936,15.8126351 12.5805971,16.2441017 12.5805971,16.7707641 C12.5805971,17.4605516 11.9951855,18.51029 11.1970616,19.295748 C10.4127848,20.0627469 9.47890629,20.6042293 8.70975473,20.6042293 C8.17765438,20.6042293 7.74195095,20.1587339 7.74195095,19.6319132 C7.7420042,19.1619992 8.08546484,18.7690856 8.54050091,18.6876549 Z" id="Shape"></path>
                            </g>
                        </g>
                    </g>
                </g>
            </g>
        </g>
    </g>
</svg>
