<?xml version="1.0" encoding="UTF-8"?>
<svg viewBox="0 0 20 31" version="1.1" xmlns="http://www.w3.org/2000/svg" xmlns:xlink="http://www.w3.org/1999/xlink">
    <defs>
        <radialGradient cx="67.3717916%" cy="50%" fx="67.3717916%" fy="50%" r="38.5343558%" gradientTransform="translate(0.673718,0.500000),scale(1.000000,0.645161),rotate(89.999999),translate(-0.673718,-0.500000)" id="radialGradient-1">
            <stop stop-color="#ECECEC" offset="0%"></stop>
            <stop stop-color="#AFAFAF" offset="100%"></stop>
        </radialGradient>
    </defs>
    <g id="Page-1" stroke="none" stroke-width="1" fill="none" fill-rule="evenodd">
        <g id="Desktop" transform="translate(-392.000000, -5624.000000)" fill="url(#radialGradient-1)">
            <g id="#7" transform="translate(387.000000, 5257.000000)">
                <g id="resources" transform="translate(5.000000, 130.000000)">
                    <g id="item_5" transform="translate(0.000000, 237.000000)">
                        <g id="air-kerosene">
                            <path d="M0,21.1705843 C0,26.6016496 4.47743282,31 10.000071,31 C15.5231353,31 20,26.6016496 20,21.1705843 C20,14.20836 12.239249,9.68746001 11.6130773,1.93747779 L11.6130773,1.61454113 C11.6130773,0.723426454 10.8902602,0 10.000071,0 C9.10981083,0 8.38720673,0.723426454 8.38720673,1.61454113 L8.38720673,1.93747779 C7.74193319,9.6875311 0,14.2084311 0,21.1705843 Z M11.3873345,25.1877088 C12.7811311,24.8647722 13.8899619,23.6764534 14.2125632,22.3784513 C14.3227717,21.7711058 14.8512327,21.3126822 15.4840084,21.3126822 C16.1931915,21.3126822 16.7741294,21.894224 16.7741294,22.6040734 C16.7741294,23.5337869 15.9935806,24.9486518 14.9294154,26.0073125 C13.883713,27.0410937 12.6385417,27.7709177 11.6130063,27.7709177 C10.9035392,27.7709177 10.3226013,27.1704674 10.3226013,26.4604048 C10.3226723,25.8270424 10.7806198,25.2974632 11.3873345,25.1877088 Z" id="Shape"></path>
                        </g>
                    </g>
                </g>
            </g>
        </g>
    </g>
</svg>
