<?xml version="1.0" encoding="UTF-8"?>
<svg viewBox="0 0 13 13" version="1.1" xmlns="http://www.w3.org/2000/svg" xmlns:xlink="http://www.w3.org/1999/xlink">
    <g id="Page-1" stroke="none" stroke-width="1" fill="none" fill-rule="evenodd">
        <g id="Desktop" transform="translate(-436.000000, -1049.000000)" fill-rule="nonzero" fill="#808080">
            <g id="#2" transform="translate(390.000000, 763.000000)">
                <g id="quotations" transform="translate(0.000000, 160.000000)">
                    <g id="item_1" transform="translate(43.000000, 30.000000)">
                        <g id="time" transform="translate(3.000000, 93.000000)">
                            <g id="clock" transform="translate(0.000000, 3.000000)">
                                <path d="M6.49763825,0 C8.29193615,0 9.91650316,0.729322034 11.0958021,1.90341404 C12.2703776,3.08254237 13,4.70644068 13,6.5 C13,8.29355932 12.2703776,9.91745763 11.0958021,11.096586 C9.91618826,12.270678 8.29193615,13 6.49763825,13 C4.70334036,13 3.07908824,12.270678 1.90451275,11.096586 C0.724898869,9.91745763 0,8.29387409 0,6.5 C0,4.70644068 0.724583969,3.08254237 1.90419785,1.90341404 C3.07908824,0.729322034 4.70334036,0 6.49763825,0 L6.49763825,0 Z M9.8116416,6.14525424 C10.0065644,6.14525424 10.161495,6.30515738 10.161495,6.5 C10.161495,6.69484262 10.0065644,6.85474576 9.8116416,6.85474576 L6.50771504,6.85474576 L6.49763825,6.85474576 C6.36758472,6.85474576 6.25264637,6.77983051 6.19281544,6.67501211 L6.18777705,6.66997579 L6.18777705,6.66997579 L6.18273866,6.65990315 L6.18273866,6.65990315 L6.18273866,6.65486683 L6.18273866,6.65486683 L6.17770026,6.64479419 L6.17770026,6.64479419 L6.17266187,6.63472155 L6.17266187,6.63472155 L6.17266187,6.62968523 L6.17266187,6.62968523 L6.16762348,6.61961259 L6.16762348,6.61961259 L6.16258508,6.61457627 L6.16258508,6.61457627 L6.16258508,6.60450363 L6.16258508,6.60450363 L6.15754669,6.59443099 L6.15754669,6.59443099 L6.15754669,6.58939467 L6.15754669,6.58939467 L6.1525083,6.57932203 L6.1525083,6.57932203 L6.1525083,6.56924939 L6.1525083,6.56924939 L6.1525083,6.56421308 L6.1525083,6.55917676 L6.1474699,6.55414044 L6.1474699,6.55414044 L6.1474699,6.5440678 L6.1474699,6.5440678 L6.1474699,6.53399516 L6.1474699,6.53399516 L6.1474699,6.5251816 L6.1474699,6.5251816 L6.1474699,6.52014528 L6.1474699,6.52014528 L6.1474699,6.51007264 L6.1474699,6.51007264 L6.1474699,6.5 L6.1474699,6.5 L6.1474699,2.26823245 C6.1474699,2.07338983 6.3024005,1.918523 6.49732335,1.918523 C6.6922462,1.918523 6.8522152,2.07338983 6.8522152,2.26823245 L6.8522152,6.14525424 L9.8116416,6.14525424 Z M10.5960565,2.40326877 C9.54649614,1.35414044 8.0970133,0.709491525 6.49763825,0.709491525 C4.89826321,0.709491525 3.44878037,1.35382567 2.39922002,2.40326877 C1.35469806,3.45239709 0.704745295,4.90128329 0.704745295,6.5 C0.704745295,8.09871671 1.35438316,9.54760291 2.39922002,10.597046 C3.44878037,11.6461743 4.89826321,12.2908232 6.49763825,12.2908232 C8.0970133,12.2908232 9.54649614,11.6461743 10.5960565,10.597046 C11.6456168,9.54791768 12.2955696,8.09903148 12.2955696,6.5 C12.2955696,4.90128329 11.6459317,3.45239709 10.5960565,2.40326877 L10.5960565,2.40326877 Z" id="Shape"></path>
                            </g>
                        </g>
                    </g>
                </g>
            </g>
        </g>
    </g>
</svg>
