<?xml version="1.0" encoding="UTF-8"?>
<svg width="51px" height="55px" viewBox="0 0 51 55" version="1.1" xmlns="http://www.w3.org/2000/svg" xmlns:xlink="http://www.w3.org/1999/xlink">
    <!-- Generator: Sketch 47 (45396) - http://www.bohemiancoding.com/sketch -->
    <title>medal</title>
    <desc>Created with Sketch.</desc>
    <defs></defs>
    <g id="Page-1" stroke="none" stroke-width="1" fill="none" fill-rule="evenodd">
        <g id="Desktop" transform="translate(-1273.000000, -4833.000000)" fill-rule="nonzero" fill="#60C3FE">
            <g id="#6" transform="translate(-1.000000, 3890.000000)">
                <g id="guarantees" transform="translate(391.000000, 794.000000)">
                    <g id="items" transform="translate(116.000000, 146.000000)">
                        <g id="quality" transform="translate(678.000000, 3.000000)">
                            <g id="medal" transform="translate(89.000000, 0.000000)">
                                <path d="M50.8251032,46.0552941 L44.4290424,32 C40.8973528,37.2695772 35.3830978,41.0219197 29,42.159734 L34.3542336,53.9253345 C35.0387633,55.4308483 37.157276,55.3303839 37.7085816,53.7756427 L40.4529096,46.0506058 L41.0184853,45.7803567 L48.5571356,48.5925765 C50.0698765,49.1614278 51.5087614,47.5548916 50.8251032,46.0552941 Z" id="Shape"></path>
                                <path d="M25.5,0 C14.7482018,0 6,8.52337126 6,19 C6,29.4766287 14.748308,38 25.5,38 C36.2517982,38 45,29.4766287 45,19 C45,8.52337126 36.2519045,0 25.5,0 Z M34.9881809,17.6039582 L31.5304469,20.8882386 L32.3475691,25.5269404 C32.5973812,26.9431712 31.065888,28.0071819 29.7749624,27.3475719 L25.5001063,25.1580516 L21.2252501,27.3474683 C19.9268865,28.0117374 18.4042127,26.9351991 18.6526434,25.5268369 L19.4697656,20.8881351 L16.0120316,17.6038547 C14.9611424,16.6055875 15.5443912,14.8630201 16.9943847,14.6577138 L21.7735402,13.9813313 L23.9110214,9.76204255 C24.5578124,8.48071558 26.4419751,8.47957671 27.0895099,9.76204255 L29.2269911,13.9813313 L34.0061466,14.6577138 C35.4559275,14.8629166 36.0390702,16.6055875 34.9881809,17.6039582 Z" id="Shape"></path>
                                <path d="M6.57122549,32 L0.17527576,46.0553596 C-0.511529593,47.5619967 0.940293046,49.1597218 2.44331291,48.592319 L9.98172331,45.7800861 L10.5472893,46.0503364 L13.2915696,53.775521 C13.8417764,55.3270323 15.9599255,55.4339715 16.6458594,53.9253251 L22,42.1596698 C15.617013,41.0219618 10.1029627,37.2697134 6.57122549,32 Z" id="Shape"></path>
                            </g>
                        </g>
                    </g>
                </g>
            </g>
        </g>
    </g>
</svg>