<?xml version="1.0" encoding="UTF-8"?>
<svg width="55px" height="52px" viewBox="0 0 55 52" version="1.1" xmlns="http://www.w3.org/2000/svg" xmlns:xlink="http://www.w3.org/1999/xlink">
    <!-- Generator: Sketch 47 (45396) - http://www.bohemiancoding.com/sketch -->
    <title>coin</title>
    <desc>Created with Sketch.</desc>
    <defs></defs>
    <g id="Page-1" stroke="none" stroke-width="1" fill="none" fill-rule="evenodd">
        <g id="Desktop" transform="translate(-933.000000, -4834.000000)" fill-rule="nonzero" fill="#60C3FE">
            <g id="#6" transform="translate(-1.000000, 3890.000000)">
                <g id="guarantees" transform="translate(391.000000, 794.000000)">
                    <g id="items" transform="translate(116.000000, 146.000000)">
                        <g id="price" transform="translate(385.000000, 4.000000)">
                            <g id="coin" transform="translate(42.000000, 0.000000)">
                                <path d="M0,5.9538604 C0,9.92315105 7.54555556,12 15,12 C22.4544444,12 30,9.92315105 30,5.9538604 C30,-1.98462013 0,-1.98462013 0,5.9538604 Z" id="Shape"></path>
                                <path d="M15,16.6666667 C9.60566667,16.6666667 0,15.0863333 0,10 L0,13.3333333 C0,17.7 7.53333333,20 15,20 C22.4666667,20 30,17.7 30,13.3333333 L30,10 C30,15.0815556 20.4396667,16.6666667 15,16.6666667 Z" id="Shape"></path>
                                <path d="M15,28.6666667 C7.53333333,28.6666667 0,26.3666667 0,22 L0,25.3333333 C0,29.7 7.53333333,32 15,32 C22.4666667,32 30,29.7 30,25.3333333 L30,22 C30,26.3666667 22.4666667,28.6666667 15,28.6666667 Z" id="Shape"></path>
                                <path d="M15,36.6666667 C7.53333333,36.6666667 0,34.3666667 0,30 L0,33.3333333 C0,37.7 7.53333333,40 15,40 C22.4666667,40 30,37.7 30,33.3333333 L30,30 C30,34.3666667 22.4666667,36.6666667 15,36.6666667 Z" id="Shape"></path>
                                <path d="M15,41.6666667 C7.53333333,41.6666667 0,39.3666667 0,35 L0,38.3333333 C0,42.7 7.53333333,45 15,45 C22.4666667,45 30,42.7 30,38.3333333 L30,35 C30,39.3666667 22.4666667,41.6666667 15,41.6666667 Z" id="Shape"></path>
                                <path d="M15,48.6666667 C7.53333333,48.6666667 0,46.3666667 0,42 L0,45.3333333 C0,49.7 7.53333333,52 15,52 C22.4666667,52 30,49.7 30,45.3333333 L30,42 C30,46.3666667 22.4666667,48.6666667 15,48.6666667 Z" id="Shape"></path>
                                <path d="M15,23.6666667 C7.53333333,23.6666667 0,21.3666667 0,17 L0,20.3333333 C0,25.4196667 9.60566667,27 15,27 C21.4664444,27 27.9666667,25.2665556 29.6,22 C29.8665556,21.5 30,20.9333333 30,20.3333333 L30,17 C30,21.3666667 22.4666667,23.6666667 15,23.6666667 Z" id="Shape"></path>
                                <path d="M40.7126295,48.6666667 C37.8330675,48.6666667 34.9710257,48.2573333 32.5650292,47.4966667 C32.2537337,48.5336667 31.7156147,49.4581111 31,50.2804444 C33.64888,51.4153333 37.1865948,52 40.7127338,52 C47.7207943,52 55,49.7 55,45.3333333 L55,42 C54.9998957,46.3666667 47.72069,48.6666667 40.7126295,48.6666667 Z" id="Shape"></path>
                                <path d="M40.1367925,36.6665556 C37.2753538,36.6665556 34.4295377,36.2926667 32,35.5991111 C32,37.4721111 32,37.0695556 32,38.9426667 C34.4302972,39.6347778 37.2801274,40 40.1367925,40 C47.4273585,40 55,37.7 55,33.3333333 L55,30 C55,35.0862222 45.4039009,36.6665556 40.1367925,36.6665556 Z" id="Shape"></path>
                                <path d="M40.1367925,41.6666667 C37.2666745,41.6666667 34.4355047,41.2703333 32,40.5694444 C32,41.8047778 32,41.0566667 32,43.9196667 C34.4259575,44.6211111 37.2683019,45 40.1367925,45 C45.4481651,45 55,43.4147778 55,38.3333333 L55,35 C55,39.3666667 47.4273585,41.6666667 40.1367925,41.6666667 Z" id="Shape"></path>
                                <path d="M32,20.9233121 L32,30.9965321 C34.4307311,31.6392116 37.2626604,32 40.1367925,32 C47.4154245,32 55,29.9206239 55,25.9465035 C55,20.4131032 40.6191415,18.7483917 32,20.9233121 Z" id="Shape"></path>
                            </g>
                        </g>
                    </g>
                </g>
            </g>
        </g>
    </g>
</svg>