<?xml version="1.0" encoding="UTF-8"?>
<svg width="46px" height="57px" viewBox="0 0 46 57" version="1.1" xmlns="http://www.w3.org/2000/svg" xmlns:xlink="http://www.w3.org/1999/xlink">
    <!-- Generator: Sketch 47 (45396) - http://www.bohemiancoding.com/sketch -->
    <title>verification</title>
    <desc>Created with Sketch.</desc>
    <defs></defs>
    <g id="Page-1" stroke="none" stroke-width="1" fill="none" fill-rule="evenodd">
        <g id="Desktop" transform="translate(-594.000000, -4830.000000)" fill-rule="nonzero" fill="#60C3FE">
            <g id="#6" transform="translate(0.000000, 4022.000000)">
                <g id="guarantees" transform="translate(390.000000, 662.000000)">
                    <g id="items" transform="translate(116.000000, 146.000000)">
                        <g id="verification">
                            <path d="M111.427746,4.03506829 L110.184937,4.03506829 C109.520887,4.03506829 108.982558,3.49664688 108.982558,2.8326892 L108.982558,2.79225913 C108.982558,1.25010134 107.732365,0 106.190207,0 L106.125685,0 C104.583527,0 103.333426,1.25010134 103.333426,2.79225913 L103.333426,2.8326892 C103.333426,3.49673919 102.795004,4.03516059 102.131047,4.03516059 L100.888237,4.03516059 C99.5644758,4.03516059 98.4914175,5.10821885 98.4914175,6.43198045 L98.4914175,6.48044114 C98.4914175,7.80420274 99.5644758,8.877261 100.888237,8.877261 L111.428023,8.877261 C112.751693,8.877261 113.824751,7.80411043 113.824751,6.48044114 L113.824751,6.43188814 C113.824659,5.10821885 112.7516,4.03506829 111.427746,4.03506829 Z M106.1579,4.03506829 C105.489327,4.03506829 104.947398,3.49304694 104.947398,2.82456626 C104.947398,2.15599327 105.489419,1.61397193 106.1579,1.61397193 C106.826473,1.61397193 107.368402,2.15599327 107.368402,2.82456626 C107.368402,3.49313925 106.826473,4.03506829 106.1579,4.03506829 Z M111.547283,50.8421927 L91.2280362,50.8421927 C89.4452364,50.8421927 88,49.3969563 88,47.6141565 L88,8.87716869 C88,7.09436893 89.4452364,5.64913252 90.421004,5.64913252 L96.9612595,5.64913252 C96.9067066,5.9171894 96.877261,6.19503072 96.877261,6.48062576 C96.877261,8.69209499 98.6764912,10.4913252 100.88833,10.4913252 L111.427654,10.4913252 C113.639585,10.4913252 115.43863,8.69209499 115.43863,6.43179583 C115.43863,6.16383126 115.409923,5.90260504 115.359709,5.64913252 L120.280731,5.64913252 C122.870747,5.64913252 124.315891,7.09436893 124.315891,8.87716869 L124.315891,33.1285623 C124.04765,33.1118549 123.781347,33.087763 123.508952,33.087763 C122.392602,33.087763 121.314744,33.2450526 120.280731,33.5127402 L120.280731,14.5263012 L92.0350683,14.5263012 L92.0350683,46.8071244 L110.637329,46.8071244 C110.725759,48.2255921 111.035722,49.5833223 111.547283,50.8421927 Z M123.508859,35.5088594 C117.714714,35.5088594 113.017719,40.2060392 113.017719,46.0000923 C113.017719,51.7941454 117.714622,56.4913252 123.508859,56.4913252 C129.303097,56.4913252 134,51.7941454 134,46.0000923 C134,40.2060392 129.303005,35.5088594 123.508859,35.5088594 Z M130.364156,43.8445606 L123.907991,51.1077573 C123.589996,51.465628 123.14702,51.6491325 122.700997,51.6491325 C122.346726,51.6491325 121.990517,51.5332884 121.693383,51.2953233 L117.658223,48.0672871 C116.962327,47.510866 116.849252,46.4949452 117.406504,45.7990496 C117.962833,45.1024156 118.979123,44.9896176 119.675018,45.5469617 L122.513246,47.8175069 L127.951551,41.6994594 C128.543049,41.033471 129.563677,40.9728259 130.230035,41.5655233 C130.896577,42.1581284 130.956391,43.177926 130.364156,43.8445606 Z M116.245663,28.2456626 L103.333426,28.2456626 C102.88768,28.2456626 102.526394,27.8842843 102.526394,27.4386305 L102.526394,26.6315984 C102.526394,26.1858523 102.88768,25.8245663 103.333426,25.8245663 L116.245663,25.8245663 C116.691316,25.8245663 117.052787,26.1859446 117.052787,26.6315984 L117.052787,27.4386305 C117.052602,27.8842843 116.691316,28.2456626 116.245663,28.2456626 Z M116.245663,20.9824659 L103.333426,20.9824659 C102.88768,20.9824659 102.526394,20.6210875 102.526394,20.1754337 L102.526394,19.3684016 C102.526394,18.9226555 102.88768,18.5613695 103.333426,18.5613695 L116.245663,18.5613695 C116.691316,18.5613695 117.052787,18.9227478 117.052787,19.3684016 L117.052787,20.1754337 C117.052602,20.6211798 116.691316,20.9824659 116.245663,20.9824659 Z M112.210502,34.7018273 L103.333426,34.7018273 C102.88768,34.7018273 102.526394,34.3404489 102.526394,33.8947951 L102.526394,33.087763 C102.526394,32.6420169 102.88768,32.2807309 103.333426,32.2807309 L112.210502,32.2807309 C112.65634,32.2807309 113.017626,32.6420169 113.017626,33.087763 L113.017626,33.8947951 C113.017442,34.3404489 112.65634,34.7018273 112.210502,34.7018273 Z M110.59653,41.965024 L103.333333,41.965024 C102.887587,41.965024 102.526301,41.6036457 102.526301,41.1579919 L102.526301,40.3509598 C102.526301,39.9052137 102.887587,39.5439277 103.333333,39.5439277 L110.59653,39.5439277 C111.042276,39.5439277 111.403562,39.9052137 111.403562,40.3509598 L111.403562,41.1579919 C111.403562,41.6036457 111.042276,41.965024 110.59653,41.965024 Z M100.98119,17.9979331 L98.0090259,21.3416288 C97.8626285,21.5063952 97.6587243,21.5909476 97.4533433,21.5909476 C97.2902384,21.5909476 97.1263028,21.5375947 96.9895052,21.4280273 L95.1318452,19.9419916 C94.8114508,19.6858423 94.7594824,19.2182196 95.0159088,18.8978252 C95.2719658,18.5770615 95.7399577,18.5251855 96.0602598,18.7817041 L97.3668525,19.826886 L99.8704705,17.0103503 C100.142773,16.7038018 100.612611,16.6758331 100.919345,16.9486899 C101.226355,17.2215466 101.253862,17.6910154 100.98119,17.9979331 Z M100.98119,25.1780544 L98.0090259,28.5216578 C97.8626285,28.6864242 97.6587243,28.7708843 97.4533433,28.7708843 C97.2902384,28.7708843 97.1263028,28.7176236 96.9895052,28.607964 L95.1318452,27.1219283 C94.8114508,26.8657789 94.7594824,26.3981563 95.0159088,26.0777619 C95.2719658,25.7569982 95.7399577,25.7051222 96.0602598,25.9616408 L97.3668525,27.0069149 L99.8704705,24.1903793 C100.142773,23.8838308 100.612611,23.855862 100.919345,24.1288111 C101.226355,24.4015756 101.253862,24.8711367 100.98119,25.1780544 Z M100.98119,32.0446119 L98.0090259,35.3883076 C97.8626285,35.5529817 97.6587243,35.6375341 97.4533433,35.6375341 C97.2902384,35.6375341 97.1263028,35.5842735 96.9895052,35.4746138 L95.1318452,33.9884858 C94.8114508,33.7324287 94.7594824,33.2647138 95.0159088,32.9443194 C95.2719658,32.6235557 95.7399577,32.5716797 96.0602598,32.8281983 L97.3668525,33.8733801 L99.8704705,31.0568445 C100.142773,30.750296 100.612611,30.7223272 100.919345,30.995184 C101.226355,31.2682254 101.253862,31.7376942 100.98119,32.0446119 Z M100.98119,38.9596301 L98.0090259,42.3033258 C97.8626285,42.4680922 97.6587243,42.5525523 97.4533433,42.5525523 C97.2902384,42.5525523 97.1263028,42.4992917 96.9895052,42.389632 L95.1318452,40.903504 C94.8114508,40.6474469 94.7594824,40.179732 95.0159088,39.8593376 C95.2719658,39.5385739 95.7399577,39.4866979 96.0602598,39.7432165 L97.3668525,40.7883983 L99.8704705,37.9718627 C100.142773,37.6653142 100.612611,37.6373454 100.919345,37.9102022 C101.226355,38.1832436 101.253862,38.6528047 100.98119,38.9596301 Z"></path>
                        </g>
                    </g>
                </g>
            </g>
        </g>
    </g>
</svg>