<?xml version="1.0" encoding="UTF-8"?>
<svg width="24px" height="18px" viewBox="0 0 24 18" version="1.1" xmlns="http://www.w3.org/2000/svg" xmlns:xlink="http://www.w3.org/1999/xlink">
    <!-- Generator: Sketch 47 (45396) - http://www.bohemiancoding.com/sketch -->
    <title>Mail</title>
    <desc>Created with Sketch.</desc>
    <defs></defs>
    <g id="Page-1" stroke="none" stroke-width="1" fill="none" fill-rule="evenodd">
        <g id="mail" fill-rule="nonzero" fill="#1387B6">
            <path d="M22.909257,15.7483126 C22.9082561,15.8144585 22.9017743,15.8803952 22.8898823,15.9454027 L16.1548227,8.9986501 L22.8898823,2.05459727 C22.9016405,2.11871535 22.9081218,2.1837436 22.909257,2.24898755 L22.909257,15.7483126 Z M21.8182528,16.8741563 L2.18174724,16.8741563 C2.05781228,16.8726799 1.93498688,16.8498672 1.81834098,16.8066597 L8.61649919,9.7951102 L10.4892982,11.7255137 C10.8891381,12.1402696 11.4328622,12.3734837 12,12.3734837 C12.5671378,12.3734837 13.1108619,12.1402696 13.5107018,11.7255137 L15.3835008,9.7951102 L22.1827063,16.8066597 C22.0656795,16.8497951 21.9425218,16.8726039 21.8182528,16.8741563 L21.8182528,16.8741563 Z M1.09074299,15.7483126 L1.09074299,2.24898755 C1.0919197,2.18375909 1.09831233,2.11874187 1.10985586,2.05459727 L7.84517725,8.9986501 L1.10985586,15.9454027 C1.09818143,15.8803683 1.09178831,15.814443 1.09074299,15.7483126 L1.09074299,15.7483126 Z M2.18174724,1.12584371 L21.8182528,1.12584371 C21.942273,1.12732035 22.0651844,1.15013266 22.1819208,1.19334033 L12.7391181,10.9317534 C12.5430475,11.1340145 12.2770752,11.2476499 11.9997382,11.2476499 C11.7224012,11.2476499 11.4564289,11.1340145 11.2603583,10.9317534 L1.81807916,1.19334033 C1.93480795,1.15010324 2.05772423,1.12729004 2.18174724,1.12584371 L2.18174724,1.12584371 Z M21.8182528,0 L2.18174724,0 C0.977048647,-0.00014913 0.000289731566,1.00671324 5.66314617e-07,2.24898755 L5.66314617e-07,15.7483126 C-0.00041623521,16.3453014 0.229253328,16.9179902 0.638447851,17.3403024 C1.04764237,17.7626145 1.60281569,17.9999285 2.18174724,18 L21.8182528,18 C22.3971843,17.9999285 22.9523576,17.7626145 23.3615521,17.3403024 C23.7707467,16.9179902 24.0004162,16.3453014 23.9999994,15.7483126 L23.9999994,2.24898755 C23.9997103,1.00671324 23.0229514,-0.00014913 21.8182528,0 Z" id="Mail"></path>
        </g>
    </g>
</svg>