<?xml version="1.0" encoding="UTF-8"?>
<svg viewBox="0 0 23 23" version="1.1" xmlns="http://www.w3.org/2000/svg" xmlns:xlink="http://www.w3.org/1999/xlink">
    <g id="Page-1" stroke="none" stroke-width="1" fill="none" fill-rule="evenodd">
        <g id="Desktop" transform="translate(-685.000000, -437.000000)" fill-rule="nonzero" fill="#60C3FE">
            <g id="#1">
                <g id="main_content" transform="translate(538.000000, 236.000000)">
                    <g id="call-us" transform="translate(147.000000, 179.000000)">
                        <g id="phone" transform="translate(0.000000, 15.000000)">
                            <g id="telephone-handle-silhouette" transform="translate(0.000000, 7.000000)">
                                <path d="M22.9510737,17.8207533 C22.8860172,17.6247379 22.472105,17.3359784 21.709623,16.9551616 C21.5030674,16.8351265 21.20874,16.6720091 20.8278995,16.4650658 C20.4467157,16.2581225 20.1007208,16.067428 19.7905441,15.893154 C19.479738,15.7189371 19.1885575,15.5501556 18.9164878,15.3870383 C18.8730024,15.354369 18.7368817,15.259222 18.5081829,15.1009679 C18.2792552,14.9431715 18.0862029,14.8260543 17.9279962,14.7496735 C17.7701328,14.6737504 17.6148442,14.6355314 17.4623592,14.6355314 C17.244589,14.6355314 16.9725764,14.7908104 16.6459783,15.1009679 C16.3193801,15.4115259 16.0197887,15.7488601 15.7476617,16.1140003 C15.4754775,16.4789689 15.1868146,16.816303 14.882188,17.1266894 C14.5771036,17.4371901 14.3264333,17.5922975 14.1306346,17.5922975 C14.0323347,17.5922975 13.9097746,17.564892 13.7628969,17.5108247 C13.6160765,17.4564141 13.5043877,17.4097846 13.4277161,17.372195 C13.3517311,17.3338043 13.2213322,17.257824 13.0360615,17.1431098 C12.8504476,17.0287389 12.747227,16.9660895 12.7254843,16.9551616 C11.2335349,16.1273312 9.95397733,15.1798661 8.88658267,14.1129953 C7.81953131,13.0454951 6.87189312,11.7661313 6.04424028,10.2741027 C6.03336893,10.2523041 5.97060121,10.1488039 5.85633762,9.96377354 C5.74190239,9.77857159 5.6656313,9.64806629 5.62752437,9.57162829 C5.58941744,9.49547636 5.54312838,9.38379449 5.48877165,9.23681153 C5.43441491,9.08982858 5.40712211,8.96739047 5.40712211,8.86926833 C5.40712211,8.67336735 5.5623535,8.42276971 5.87275908,8.1178187 C6.18310744,7.81303934 6.52080582,7.52433713 6.88551092,7.25228421 C7.2505021,6.98023129 7.58785718,6.68065841 7.89831997,6.35408048 C8.20866833,6.02733091 8.36384251,5.75522078 8.36384251,5.53746402 C8.36384251,5.38510295 8.32573558,5.22976674 8.24957893,5.07191311 C8.17336506,4.9137162 8.05629781,4.72067592 7.89831997,4.49187685 C7.74028491,4.2631922 7.64501758,4.12719435 7.6122891,4.08342558 C7.44910445,3.81137267 7.28048413,3.52009582 7.10602762,3.20970948 C6.9315711,2.89938035 6.74115087,2.55346406 6.53413753,2.17236113 C6.32729584,1.79142983 6.16405397,1.49729228 6.04412585,1.2904062 C5.66317095,0.528257533 5.3746225,0.114256503 5.17853772,0.0491468884 C5.10226664,0.0164776529 4.9878314,0 4.8355181,0 C4.54130511,0 4.15748933,0.054353369 3.68378467,0.163403392 C3.20990836,0.272281772 2.83702115,0.386481061 2.5647225,0.506458971 C2.02018243,0.735029192 1.44302832,1.39928458 0.833088516,2.49899627 C0.2776771,3.5224416 0,4.53541675 0,5.53717795 C0,5.83097222 0.0190534668,6.11681372 0.0571604003,6.39475969 C0.0952673338,6.67241958 0.163356299,6.9855522 0.261484514,7.33410033 C0.359441075,7.68253404 0.438458606,7.9413705 0.498193799,8.10992316 C0.55798621,8.27859025 0.669617782,8.58073776 0.833031299,9.01648014 C0.996215945,9.45210809 1.09434416,9.71878288 1.12701542,9.81679059 C1.50814197,10.8840619 1.96010394,11.8368479 2.48278687,12.6754345 C3.34276767,14.0692838 4.51635823,15.5097625 6.00287194,16.9962985 C7.48944287,18.4827201 8.92972475,19.6561807 10.3237748,20.5164515 C11.162299,21.0390449 12.1154873,21.4909216 13.1826531,21.8723106 C13.2807241,21.9048082 13.5474154,22.0027015 13.9828987,22.1664482 C14.4185536,22.3297371 14.7208343,22.4413618 14.8895118,22.5012649 C15.0582466,22.5612253 15.3171563,22.6402951 15.6653255,22.7384173 C16.0142385,22.8365394 16.3271045,22.9046241 16.6047816,22.9430148 C16.8826303,22.9806044 17.1685468,23 17.4624165,23 C18.4641825,23 19.4772776,22.7221685 20.500958,22.1668487 C21.6006234,21.5571755 22.2647483,20.9799427 22.4934472,20.4350359 C22.6137186,20.1630402 22.7276389,19.7900617 22.836524,19.3162147 C22.9457524,18.8425966 22.9999947,18.4588618 22.9999947,18.1647243 C23.000338,18.0117911 22.9839166,17.897649 22.9510737,17.8207533 Z" id="Shape"></path>
                            </g>
                        </g>
                    </g>
                </g>
            </g>
        </g>
    </g>
</svg>
