<?xml version="1.0" encoding="UTF-8"?>
<svg viewBox="0 0 568 776" version="1.1" xmlns="http://www.w3.org/2000/svg" xmlns:xlink="http://www.w3.org/1999/xlink">
    <defs>
        <radialGradient cx="67.3717916%" cy="50%" fx="67.3717916%" fy="50%" r="38.5343558%" gradientTransform="translate(0.673718,0.500000),scale(1.000000,0.642857),rotate(89.999999),translate(-0.673718,-0.500000)" id="radialGradient-1">
            <stop stop-color="#C6F8FF" offset="0%"></stop>
            <stop stop-color="#3EE3F9" offset="100%"></stop>
        </radialGradient>
        <radialGradient cx="67.3717916%" cy="50%" fx="67.3717916%" fy="50%" r="38.5343558%" gradientTransform="translate(0.673718,0.500000),scale(1.000000,0.642857),rotate(89.999999),translate(-0.673718,-0.500000)" id="radialGradient-2">
            <stop stop-color="#69675A" offset="0%"></stop>
            <stop stop-color="#221B09" offset="100%"></stop>
        </radialGradient>
        <radialGradient cx="67.3717916%" cy="50%" fx="67.3717916%" fy="50%" r="38.5343558%" gradientTransform="translate(0.673718,0.500000),scale(1.000000,0.642857),rotate(89.999999),translate(-0.673718,-0.500000)" id="radialGradient-3">
            <stop stop-color="#FBFCDD" offset="0%"></stop>
            <stop stop-color="#DBBF76" offset="100%"></stop>
        </radialGradient>
        <radialGradient cx="67.3717916%" cy="50%" fx="67.3717916%" fy="50%" r="38.5343558%" gradientTransform="translate(0.673718,0.500000),scale(1.000000,0.642857),rotate(89.999999),translate(-0.673718,-0.500000)" id="radialGradient-4">
            <stop stop-color="#FBFCDD" offset="0%"></stop>
            <stop stop-color="#B8E298" offset="100%"></stop>
        </radialGradient>
        <radialGradient cx="67.3717916%" cy="51.5351996%" fx="67.3717916%" fy="51.5351996%" r="36.9991561%" gradientTransform="translate(0.673718,0.515352),scale(1.000000,0.642857),rotate(89.999999),translate(-0.673718,-0.515352)" id="radialGradient-5">
            <stop stop-color="#7D5C30" offset="0%"></stop>
            <stop stop-color="#211800" offset="100%"></stop>
        </radialGradient>
        <radialGradient cx="67.3717916%" cy="51.5351996%" fx="67.3717916%" fy="51.5351996%" r="36.9991561%" gradientTransform="translate(0.673718,0.515352),scale(1.000000,0.642857),rotate(89.999999),translate(-0.673718,-0.515352)" id="radialGradient-6">
            <stop stop-color="#B9F5F3" offset="0%"></stop>
            <stop stop-color="#75D5D1" offset="100%"></stop>
        </radialGradient>
        <radialGradient cx="67.3717916%" cy="51.5351996%" fx="67.3717916%" fy="51.5351996%" r="36.9991561%" gradientTransform="translate(0.673718,0.515352),scale(1.000000,0.654545),rotate(89.999999),translate(-0.673718,-0.515352)" id="radialGradient-7">
            <stop stop-color="#D9FFEA" offset="0%"></stop>
            <stop stop-color="#97D9B5" offset="100%"></stop>
        </radialGradient>
    </defs>
    <g id="Page-1" stroke="none" stroke-width="1" fill="none" fill-rule="evenodd">
        <g id="Desktop" transform="translate(-331.000000, -3156.000000)">
            <g id="#5" transform="translate(332.000000, 3157.000000)">
                <g id="scheme">
                    <text id="text-header" font-family="Raleway-ExtraBold, Raleway" font-size="60" font-weight="600" fill="#000000">
                        <tspan x="19.29" y="398">НГБ</tspan>
                    </text>
                    <g id="all_active">
                        <g id="item_1">
                            <g id="content" transform="translate(30.000000, 26.000000)">
                                <g id="gas" transform="translate(32.000000, 0.000000)" fill="url(#radialGradient-1)">
                                    <path d="M0,38.2436362 C0,48.0545929 8.05937908,56 18.0001278,56 C27.9416435,56 36,48.0545929 36,38.2436362 C36,25.6667148 22.0306482,17.4999278 20.9035392,3.49995987 L20.9035392,2.91659042 C20.9035392,1.30683488 19.6024683,0 18.0001278,0 C16.3976595,0 15.0969721,1.30683488 15.0969721,2.91659042 L15.0969721,3.49995987 C13.9354797,17.5000562 0,25.6668432 0,38.2436362 Z M20.4972022,45.5003772 C23.0060359,44.9170078 25.0019315,42.7703674 25.5826138,40.4255895 C25.780989,39.3284491 26.7322189,38.5003291 27.8712151,38.5003291 C29.1477447,38.5003291 30.1934329,39.5508563 30.1934329,40.8331648 C30.1934329,42.5126473 28.7884452,45.0685323 26.8729478,46.9809517 C24.9906834,48.8484273 22.7493751,50.1668192 20.9034114,50.1668192 C19.6263705,50.1668192 18.5806823,49.0821346 18.5806823,47.799441 C18.5808101,46.6553023 19.4051156,45.6986432 20.4972022,45.5003772 Z" id="Shape"></path>
                                </g>
                                <text class="text" font-family="OpenSans-Bold, Open Sans" font-size="16" font-weight="bold" line-spacing="20" fill="#3EE3F9">
                                    <tspan x="0" y="86">Природный</tspan>
                                    <tspan x="36.875" y="106">газ</tspan>
                                </text>
                            </g>
                            <circle class="circle" fill="transparent" stroke="#3EE3F9" cx="80" cy="80" r="80"></circle>
                        </g>
                        <rect id="Rectangle-4" fill="#3EE3F9" transform="translate(74.209551, 239.902826) rotate(-88.000000) translate(-74.209551, -239.902826) " x="-5.79044917" y="239.402826" width="160" height="1"></rect>
                        <g id="item_2" transform="translate(164.000000, 63.000000)">
                            <g id="content" transform="translate(53.000000, 36.000000)">
                                <g id="oil" transform="translate(9.000000, 0.000000)" fill="url(#radialGradient-2)">
                                    <path d="M0,38.2436362 C0,48.0545929 8.05937908,56 18.0001278,56 C27.9416435,56 36,48.0545929 36,38.2436362 C36,25.6667148 22.0306482,17.4999278 20.9035392,3.49995987 L20.9035392,2.91659042 C20.9035392,1.30683488 19.6024683,0 18.0001278,0 C16.3976595,0 15.0969721,1.30683488 15.0969721,2.91659042 L15.0969721,3.49995987 C13.9354797,17.5000562 0,25.6668432 0,38.2436362 Z M20.4972022,45.5003772 C23.0060359,44.9170078 25.0019315,42.7703674 25.5826138,40.4255895 C25.780989,39.3284491 26.7322189,38.5003291 27.8712151,38.5003291 C29.1477447,38.5003291 30.1934329,39.5508563 30.1934329,40.8331648 C30.1934329,42.5126473 28.7884452,45.0685323 26.8729478,46.9809517 C24.9906834,48.8484273 22.7493751,50.1668192 20.9034114,50.1668192 C19.6263705,50.1668192 18.5806823,49.0821346 18.5806823,47.799441 C18.5808101,46.6553023 19.4051156,45.6986432 20.4972022,45.5003772 Z" id="Shape"></path>
                                </g>
                                <text class="text" font-family="OpenSans-Bold, Open Sans" font-size="16" font-weight="bold" line-spacing="20" fill="#221B09">
                                    <tspan x="0" y="86">Нефть</tspan>
                                </text>
                            </g>
                            <circle class="circle" fill="transparent" stroke="#221B09" cx="80" cy="80" r="80"></circle>
                        </g>
                        <rect id="Rectangle-4-Copy-2" fill="#221B09" transform="translate(161.709551, 258.902826) rotate(-61.000000) translate(-161.709551, -258.902826) " x="99.2095508" y="258.402826" width="125" height="1"></rect>
                        <g id="item_3" transform="translate(325.000000, 138.000000)">
                            <g id="content" transform="translate(33.000000, 26.000000)">
                                <g id="disel" transform="translate(29.000000, 0.000000)" fill="url(#radialGradient-3)">
                                    <path d="M0,38.2436362 C0,48.0545929 8.05937908,56 18.0001278,56 C27.9416435,56 36,48.0545929 36,38.2436362 C36,25.6667148 22.0306482,17.4999278 20.9035392,3.49995987 L20.9035392,2.91659042 C20.9035392,1.30683488 19.6024683,0 18.0001278,0 C16.3976595,0 15.0969721,1.30683488 15.0969721,2.91659042 L15.0969721,3.49995987 C13.9354797,17.5000562 0,25.6668432 0,38.2436362 Z M20.4972022,45.5003772 C23.0060359,44.9170078 25.0019315,42.7703674 25.5826138,40.4255895 C25.780989,39.3284491 26.7322189,38.5003291 27.8712151,38.5003291 C29.1477447,38.5003291 30.1934329,39.5508563 30.1934329,40.8331648 C30.1934329,42.5126473 28.7884452,45.0685323 26.8729478,46.9809517 C24.9906834,48.8484273 22.7493751,50.1668192 20.9034114,50.1668192 C19.6263705,50.1668192 18.5806823,49.0821346 18.5806823,47.799441 C18.5808101,46.6553023 19.4051156,45.6986432 20.4972022,45.5003772 Z" id="Shape"></path>
                                </g>
                                <text class="text" font-family="OpenSans-Bold, Open Sans" font-size="16" font-weight="bold" line-spacing="20" fill="#DBBF76">
                                    <tspan x="0.5" y="86">Дизельное</tspan>
                                    <tspan x="11.0859375" y="106">топливо</tspan>
                                </text>
                            </g>
                            <circle class="circle" fill="transparent" stroke="#DBBF76" cx="80" cy="80" r="80"></circle>
                        </g>
                        <rect id="Rectangle-4-Copy-3" fill="#DBBF76" transform="translate(253.209551, 294.902826) rotate(-30.000000) translate(-253.209551, -294.902826) " x="163.209551" y="294.402826" width="180" height="1"></rect>
                        <g id="item_4" transform="translate(406.000000, 293.000000)">
                            <g id="content" transform="translate(24.000000, 36.000000)">
                                <g id="air-kerosene" transform="translate(38.000000, 0.000000)" fill="url(#radialGradient-4)">
                                    <path d="M0,38.2436362 C0,48.0545929 8.05937908,56 18.0001278,56 C27.9416435,56 36,48.0545929 36,38.2436362 C36,25.6667148 22.0306482,17.4999278 20.9035392,3.49995987 L20.9035392,2.91659042 C20.9035392,1.30683488 19.6024683,0 18.0001278,0 C16.3976595,0 15.0969721,1.30683488 15.0969721,2.91659042 L15.0969721,3.49995987 C13.9354797,17.5000562 0,25.6668432 0,38.2436362 Z M20.4972022,45.5003772 C23.0060359,44.9170078 25.0019315,42.7703674 25.5826138,40.4255895 C25.780989,39.3284491 26.7322189,38.5003291 27.8712151,38.5003291 C29.1477447,38.5003291 30.1934329,39.5508563 30.1934329,40.8331648 C30.1934329,42.5126473 28.7884452,45.0685323 26.8729478,46.9809517 C24.9906834,48.8484273 22.7493751,50.1668192 20.9034114,50.1668192 C19.6263705,50.1668192 18.5806823,49.0821346 18.5806823,47.799441 C18.5808101,46.6553023 19.4051156,45.6986432 20.4972022,45.5003772 Z" id="Shape"></path>
                                </g>
                                <text class="text" font-family="OpenSans-Bold, Open Sans" font-size="16" font-weight="bold" line-spacing="20" fill="#B8E298">
                                    <tspan x="0" y="86">Авиакеросин</tspan>
                                </text>
                            </g>
                            <circle class="circle" fill="transparent" stroke="#B8E298" cx="80" cy="80" r="80"></circle>
                        </g>
                        <rect id="Rectangle-4-Copy-4" fill="#B8E298" x="176.522413" y="374.433013" width="230" height="1"></rect>
                        <g id="item_5" transform="translate(326.000000, 448.000000)">
                            <g id="content" transform="translate(49.000000, 36.000000)">
                                <g id="petrol" transform="translate(13.000000, 0.000000)" fill="url(#radialGradient-5)">
                                    <path d="M0,38.2436362 C0,48.0545929 8.05937908,56 18.0001278,56 C27.9416435,56 36,48.0545929 36,38.2436362 C36,25.6667148 22.0306482,17.4999278 20.9035392,3.49995987 L20.9035392,2.91659042 C20.9035392,1.30683488 19.6024683,0 18.0001278,0 C16.3976595,0 15.0969721,1.30683488 15.0969721,2.91659042 L15.0969721,3.49995987 C13.9354797,17.5000562 0,25.6668432 0,38.2436362 Z M20.4972022,45.5003772 C23.0060359,44.9170078 25.0019315,42.7703674 25.5826138,40.4255895 C25.780989,39.3284491 26.7322189,38.5003291 27.8712151,38.5003291 C29.1477447,38.5003291 30.1934329,39.5508563 30.1934329,40.8331648 C30.1934329,42.5126473 28.7884452,45.0685323 26.8729478,46.9809517 C24.9906834,48.8484273 22.7493751,50.1668192 20.9034114,50.1668192 C19.6263705,50.1668192 18.5806823,49.0821346 18.5806823,47.799441 C18.5808101,46.6553023 19.4051156,45.6986432 20.4972022,45.5003772 Z" id="Shape"></path>
                                </g>
                                <text class="text" font-family="OpenSans-Bold, Open Sans" font-size="16" font-weight="bold" line-spacing="20" fill="#221801">
                                    <tspan x="0" y="86">Бензин</tspan>
                                </text>
                            </g>
                            <circle class="circle" fill="transparent" stroke="#221801" cx="80" cy="80" r="80"></circle>
                        </g>
                        <rect id="Rectangle-4-Copy-5" fill="#211700" transform="translate(255.209551, 450.902826) rotate(-331.000000) translate(-255.209551, -450.902826) " x="165.209551" y="450.402826" width="180" height="1"></rect>
                        <g id="item_6" transform="translate(165.000000, 530.000000)">
                            <g id="content" transform="translate(62.000000, 36.000000)">
                                <g id="SUG" fill="url(#radialGradient-6)">
                                    <path d="M0,38.2436362 C0,48.0545929 8.05937908,56 18.0001278,56 C27.9416435,56 36,48.0545929 36,38.2436362 C36,25.6667148 22.0306482,17.4999278 20.9035392,3.49995987 L20.9035392,2.91659042 C20.9035392,1.30683488 19.6024683,0 18.0001278,0 C16.3976595,0 15.0969721,1.30683488 15.0969721,2.91659042 L15.0969721,3.49995987 C13.9354797,17.5000562 0,25.6668432 0,38.2436362 Z M20.4972022,45.5003772 C23.0060359,44.9170078 25.0019315,42.7703674 25.5826138,40.4255895 C25.780989,39.3284491 26.7322189,38.5003291 27.8712151,38.5003291 C29.1477447,38.5003291 30.1934329,39.5508563 30.1934329,40.8331648 C30.1934329,42.5126473 28.7884452,45.0685323 26.8729478,46.9809517 C24.9906834,48.8484273 22.7493751,50.1668192 20.9034114,50.1668192 C19.6263705,50.1668192 18.5806823,49.0821346 18.5806823,47.799441 C18.5808101,46.6553023 19.4051156,45.6986432 20.4972022,45.5003772 Z" id="Shape"></path>
                                </g>
                                <text class="text" font-family="OpenSans-Bold, Open Sans" font-size="16" font-weight="bold" line-spacing="20" fill="#75D5D1">
                                    <tspan x="3" y="86">СУГ</tspan>
                                </text>
                            </g>
                            <circle class="circle" fill="transparent" stroke="#75D5D1" cx="80" cy="80" r="80"></circle>
                        </g>
                        <rect id="Rectangle-4-Copy-6" fill="#75D5D1" transform="translate(160.209551, 491.902826) rotate(-124.000000) translate(-160.209551, -491.902826) " x="95.2095508" y="491.402826" width="130" height="1"></rect>
                        <g id="item_7" transform="translate(2.000000, 614.000000)">
                            <g id="content" transform="translate(36.000000, 27.000000)">
                                <g id="gas-condensate" transform="translate(26.000000, 0.000000)" fill="url(#radialGradient-7)">
                                    <path d="M0,37.5607141 C0,47.1964751 8.05937908,55 18.0001278,55 C27.9416435,55 36,47.1964751 36,37.5607141 C36,25.2083806 22.0306482,17.1874291 20.9035392,3.43746059 L20.9035392,2.86450845 C20.9035392,1.28349855 19.6024683,0 18.0001278,0 C16.3976595,0 15.0969721,1.28349855 15.0969721,2.86450845 L15.0969721,3.43746059 C13.9354797,17.1875552 0,25.2085067 0,37.5607141 Z M20.4972022,44.6878705 C23.0060359,44.1149183 25.0019315,42.0066109 25.5826138,39.703704 C25.780989,38.6261554 26.7322189,37.8128232 27.8712151,37.8128232 C29.1477447,37.8128232 30.1934329,38.844591 30.1934329,40.1040011 C30.1934329,41.7534929 28.7884452,44.2637371 26.8729478,46.1420061 C24.9906834,47.976134 22.7493751,49.2709831 20.9034114,49.2709831 C19.6263705,49.2709831 18.5806823,48.205668 18.5806823,46.9458795 C18.5808101,45.8221719 19.4051156,44.882596 20.4972022,44.6878705 Z" id="Shape"></path>
                                </g>
                                <text class="text" font-family="OpenSans-Bold, Open Sans" font-size="16" font-weight="bold" line-spacing="20" fill="#97D9B5">
                                    <tspan x="7.359375" y="85">Газовый</tspan>
                                    <tspan x="0" y="105">конденсат</tspan>
                                </text>
                            </g>
                            <circle class="circle" fill="transparent" stroke="#97D9B5" cx="80" cy="80" r="80"></circle>
                        </g>
                        <rect id="Rectangle-4-Copy" fill="#97D9B5" transform="translate(73.709551, 531.902826) rotate(-93.000000) translate(-73.709551, -531.902826) " x="-8.79044917" y="531.402826" width="165" height="1"></rect>
                    </g>
                </g>
            </g>
        </g>
    </g>
</svg>
